<svg xmlns="http://www.w3.org/2000/svg" viewBox="0 0 24 24" width="24" height="24">
  <circle cx="6" cy="6" r="1" fill="currentColor"/>
  <circle cx="10" cy="4" r="1" fill="currentColor"/>
  <circle cx="14" cy="5" r="1" fill="currentColor"/>
  <circle cx="4" cy="10" r="1" fill="currentColor"/>
  <circle cx="8" cy="9" r="1" fill="currentColor"/>
  <circle cx="12" cy="8" r="1" fill="currentColor"/>
  <circle cx="16" cy="9" r="1" fill="currentColor"/>
  <circle cx="6" cy="13" r="1" fill="currentColor"/>
  <circle cx="10" cy="12" r="1" fill="currentColor"/>
  <circle cx="14" cy="13" r="1" fill="currentColor"/>
  <circle cx="18" cy="12" r="1" fill="currentColor"/>
  <circle cx="8" cy="16" r="1" fill="currentColor"/>
  <circle cx="12" cy="16" r="1" fill="currentColor"/>
  <circle cx="16" cy="17" r="1" fill="currentColor"/>
  <circle cx="10" cy="19" r="1" fill="currentColor"/>
  <circle cx="14" cy="20" r="1" fill="currentColor"/>
  <circle cx="19" cy="15" r="1" fill="currentColor"/>
  <circle cx="5" cy="18" r="1" fill="currentColor"/>
  <circle cx="18" cy="7" r="1" fill="currentColor"/>
  <circle cx="20" cy="19" r="1" fill="currentColor"/>
</svg>
